<svg width="24" height="24" viewBox="0 0 24 24" fill="none" xmlns="http://www.w3.org/2000/svg">
<path d="M7.048 13.406L10.583 16.942L9.17 18.356L10.585 19.771L9.171 21.185L6.696 18.71L3.867 21.539L2.453 20.125L5.282 17.295L2.807 14.821L4.221 13.407L5.635 14.82L7.048 13.406ZM3 3L6.546 3.003L18.363 14.821L19.778 13.407L21.193 14.821L18.718 17.296L21.546 20.125L20.132 21.539L17.303 18.71L14.829 21.185L13.414 19.771L14.828 18.356L3.002 6.531L3 3ZM17.457 3L21 3.003L21.002 6.526L16.949 10.578L13.413 7.043L17.456 3H17.457Z" fill="#0396E9"/>
</svg>
