<svg width="45" height="35" viewBox="0 0 45 35" fill="none" xmlns="http://www.w3.org/2000/svg">
<g id="Group">
<path id="Vector" d="M2.88608 7.98747H25.3861M35.3861 7.98747H42.8861M20.3861 27.9875H42.8861M2.88608 27.9875H10.3861" stroke="#555568" stroke-width="4" stroke-linecap="round" stroke-linejoin="round"/>
<path id="Vector_2" d="M15.3861 32.9875C18.1475 32.9875 20.3861 30.7489 20.3861 27.9875C20.3861 25.226 18.1475 22.9875 15.3861 22.9875C12.6247 22.9875 10.3861 25.226 10.3861 27.9875C10.3861 30.7489 12.6247 32.9875 15.3861 32.9875Z" stroke="#555568" stroke-width="4"/>
<path id="Vector_3" d="M30.3861 12.9875C33.1475 12.9875 35.3861 10.7489 35.3861 7.98747C35.3861 5.22604 33.1475 2.98747 30.3861 2.98747C27.6247 2.98747 25.3861 5.22604 25.3861 7.98747C25.3861 10.7489 27.6247 12.9875 30.3861 12.9875Z" stroke="#555568" stroke-width="4"/>
</g>
</svg>
