<svg width="21" height="18" viewBox="0 0 21 18" fill="none" xmlns="http://www.w3.org/2000/svg">
<path d="M19 8.13C18.85 8.14 18.71 8.19 18.61 8.3L17.61 9.3L19.66 11.3L20.66 10.3C20.88 10.09 20.88 9.74 20.66 9.53L19.42 8.3C19.3201 8.19635 19.1839 8.13542 19.04 8.13M17.04 9.88L11 15.94V18H13.06L19.12 11.93M18 0H2C1.46957 0 0.960859 0.210714 0.585786 0.585786C0.210714 0.960859 0 1.46957 0 2V14C0 14.5304 0.210714 15.0391 0.585786 15.4142C0.960859 15.7893 1.46957 16 2 16H9V15.11L17.24 6.89C17.71 6.4 18.36 6.13 19.04 6.13C19.38 6.13 19.72 6.19 20.04 6.32V2C20.04 0.88 19.12 0 18 0ZM18 4L10 9L2 4V2L10 7L18 2" fill="#555568"/>
</svg>
