<svg width="41" height="40" viewBox="0 0 41 40" fill="none" xmlns="http://www.w3.org/2000/svg">
<path id="Vector" d="M20.8861 0.449474C18.2596 0.449474 15.6589 0.966379 13.2324 1.97068C10.8059 2.97497 8.60111 4.44699 6.74394 6.30269C2.99321 10.0504 0.886078 15.1335 0.886078 20.4336C0.886078 29.2666 6.62608 36.7606 14.5661 39.4185C15.5661 39.5784 15.8861 38.9589 15.8861 38.4193V35.042C10.3461 36.241 9.16608 32.3641 9.16608 32.3641C8.24608 30.046 6.94608 29.4265 6.94608 29.4265C5.12608 28.1874 7.08608 28.2274 7.08608 28.2274C9.08608 28.3673 10.1461 30.2858 10.1461 30.2858C11.8861 33.3234 14.8261 32.4241 15.9661 31.9445C16.1461 30.6455 16.6661 29.7662 17.2261 29.2666C12.7861 28.767 8.12608 27.0483 8.12608 19.4344C8.12608 17.2162 8.88608 15.4376 10.1861 14.0187C9.98608 13.5191 9.28608 11.4407 10.3861 8.74289C10.3861 8.74289 12.0661 8.20332 15.8861 10.7813C17.4661 10.3416 19.1861 10.1218 20.8861 10.1218C22.5861 10.1218 24.3061 10.3416 25.8861 10.7813C29.7061 8.20332 31.3861 8.74289 31.3861 8.74289C32.4861 11.4407 31.7861 13.5191 31.5861 14.0187C32.8861 15.4376 33.6461 17.2162 33.6461 19.4344C33.6461 27.0683 28.9661 28.747 24.5061 29.2466C25.2261 29.8661 25.8861 31.0851 25.8861 32.9437V38.4193C25.8861 38.9589 26.2061 39.5984 27.2261 39.4185C35.1661 36.7406 40.8861 29.2666 40.8861 20.4336C40.8861 17.8092 40.3688 15.2106 39.3637 12.786C38.3586 10.3614 36.8854 8.15839 35.0282 6.30269C33.171 4.44699 30.9663 2.97497 28.5397 1.97068C26.1132 0.966379 23.5125 0.449474 20.8861 0.449474Z" fill="#555568"/>
</svg>
