<svg width="40" height="41" viewBox="0 0 40 41" fill="none" xmlns="http://www.w3.org/2000/svg">
<path id="Vector" d="M19.9 32.462C20.6 32.462 21.192 32.22 21.676 31.736C22.16 31.252 22.4013 30.6607 22.4 29.962C22.4 29.262 22.1587 28.67 21.676 28.186C21.1933 27.702 20.6013 27.4607 19.9 27.462C19.2 27.462 18.6087 27.704 18.126 28.188C17.6433 28.672 17.4013 29.2634 17.4 29.962C17.4 30.662 17.642 31.254 18.126 31.738C18.61 32.222 19.2013 32.4634 19.9 32.462ZM18.1 24.762H21.8C21.8 23.662 21.9253 22.7954 22.176 22.162C22.4267 21.5287 23.1347 20.662 24.3 19.562C25.1667 18.6954 25.85 17.87 26.35 17.086C26.85 16.302 27.1 15.3607 27.1 14.262C27.1 12.3954 26.4167 10.962 25.05 9.96202C23.6833 8.96202 22.0667 8.46202 20.2 8.46202C18.3 8.46202 16.758 8.96202 15.574 9.96202C14.39 10.962 13.5653 12.162 13.1 13.562L16.4 14.862C16.5667 14.262 16.942 13.612 17.526 12.912C18.11 12.212 19.0013 11.862 20.2 11.862C21.2667 11.862 22.0667 12.154 22.6 12.738C23.1333 13.322 23.4 13.9634 23.4 14.662C23.4 15.3287 23.2 15.954 22.8 16.538C22.4 17.122 21.9 17.6634 21.3 18.162C19.8333 19.462 18.9333 20.4454 18.6 21.112C18.2667 21.7787 18.1 22.9954 18.1 24.762ZM20 40.462C17.2333 40.462 14.6333 39.9367 12.2 38.886C9.76667 37.8353 7.65 36.4107 5.85 34.612C4.05 32.812 2.62533 30.6953 1.576 28.262C0.526667 25.8287 0.00133333 23.2287 0 20.462C0 17.6954 0.525333 15.0954 1.576 12.662C2.62667 10.2287 4.05133 8.11202 5.85 6.31202C7.65 4.51202 9.76667 3.08735 12.2 2.03802C14.6333 0.988688 17.2333 0.463354 20 0.462021C22.7667 0.462021 25.3667 0.987354 27.8 2.03802C30.2333 3.08869 32.35 4.51335 34.15 6.31202C35.95 8.11202 37.3753 10.2287 38.426 12.662C39.4767 15.0954 40.0013 17.6954 40 20.462C40 23.2287 39.4747 25.8287 38.424 28.262C37.3733 30.6953 35.9487 32.812 34.15 34.612C32.35 36.412 30.2333 37.8373 27.8 38.888C25.3667 39.9387 22.7667 40.4633 20 40.462ZM20 36.462C24.4667 36.462 28.25 34.912 31.35 31.812C34.45 28.712 36 24.9287 36 20.462C36 15.9954 34.45 12.212 31.35 9.11202C28.25 6.01202 24.4667 4.46202 20 4.46202C15.5333 4.46202 11.75 6.01202 8.65 9.11202C5.55 12.212 4 15.9954 4 20.462C4 24.9287 5.55 28.712 8.65 31.812C11.75 34.912 15.5333 36.462 20 36.462Z" fill="#555568"/>
</svg>
