<svg width="41" height="37" viewBox="0 0 41 37" fill="none" xmlns="http://www.w3.org/2000/svg">
<path id="Vector" d="M38.2422 28.7819L33.2057 25.8732C33.123 25.8258 33.0317 25.7952 32.9371 25.7831C32.8425 25.771 32.7465 25.7777 32.6545 25.8027C32.5625 25.8277 32.4763 25.8706 32.4008 25.9289C32.3254 25.9873 32.2622 26.0599 32.2148 26.1426L31.3062 27.718C31.1053 28.065 31.224 28.5125 31.571 28.7134L36.6075 31.6221C36.6903 31.6695 36.7816 31.7001 36.8761 31.7122C36.9707 31.7243 37.0668 31.7176 37.1588 31.6926C37.2508 31.6676 37.337 31.6247 37.4124 31.5664C37.4878 31.508 37.551 31.4354 37.5984 31.3527L38.5071 29.7773C38.708 29.4303 38.5847 28.9828 38.2422 28.7819ZM32.2103 10.8002C32.2576 10.8829 32.3209 10.9555 32.3963 11.0139C32.4717 11.0722 32.5579 11.1151 32.6499 11.1401C32.7419 11.1651 32.838 11.1718 32.9325 11.1597C33.0271 11.1476 33.1184 11.1169 33.2011 11.0696L38.2377 8.16089C38.5847 7.95997 38.7034 7.51249 38.5025 7.16545L37.5984 5.59468C37.551 5.51192 37.4878 5.43931 37.4124 5.38098C37.337 5.32265 37.2508 5.27975 37.1588 5.25474C37.0668 5.22972 36.9707 5.22307 36.8761 5.23517C36.7816 5.24728 36.6903 5.27789 36.6075 5.32527L31.571 8.23395C31.4042 8.33116 31.2828 8.49046 31.2331 8.677C31.1835 8.86354 31.2098 9.06215 31.3062 9.22938L32.2103 10.8002ZM40.1555 16.8276H34.3107C33.9089 16.8276 33.5801 17.1563 33.5801 17.5581V19.3846C33.5801 19.7865 33.9089 20.1152 34.3107 20.1152H40.1555C40.5573 20.1152 40.8861 19.7865 40.8861 19.3846V17.5581C40.8861 17.1563 40.5573 16.8276 40.1555 16.8276ZM26.087 0.343536C25.8176 0.343536 25.5436 0.416596 25.2925 0.585546L9.10526 11.1655H1.61667C1.21485 11.1655 0.886078 11.4942 0.886078 11.896V25.0467C0.886078 25.4486 1.21485 25.7773 1.61667 25.7773H9.10526L25.2925 36.3572C25.5436 36.5216 25.8222 36.5992 26.087 36.5992C26.8495 36.5992 27.5527 35.9919 27.5527 35.1335V1.80929C27.5527 0.950843 26.8495 0.343536 26.087 0.343536Z" fill="#555568"/>
</svg>
